<svg version="1" xmlns="http://www.w3.org/2000/svg" width="1398.667" height="1398.667" viewBox="0 0 1049.000000 1049.000000"><path d="M280.5 24.6c-20 3.1-46.8 12.5-73.6 26-56.4 28.2-90.5 58.7-111.3 99.4C79.8 181.1 73 205.1 73 230.6c0 20.6 3.8 38.1 15 69.5 18.3 51.1 48.5 91 94 124.6 17 12.5 28.4 19.1 75.5 43.8 71.6 37.5 90 50.6 118.6 84.5 10.2 12 21.9 27.3 24 31.1.5 1.1-4.8-1.9-11.8-6.5-23.8-15.7-44.8-24.7-66.6-28.6-31.9-5.7-60.6-4.1-84.7 4.6-29.6 10.6-59.6 34.8-74.1 59.6-16.9 28.9-22 69.6-13.3 106 7.4 31.1 40.2 77.5 71.3 100.8 26.5 20 72.5 37.2 116.3 43.5l4.7.7-2.1 4.1c-4 7.9-14.6 24.5-21.5 33.8-30.8 41.4-69 65.5-125.7 79.4-7.7 1.9-17.2 3.9-20.9 4.6l-6.8 1.1 18.6 10.3c28.9 16 41.4 19.1 72.5 18.2 18.9-.6 27.3-2.1 44.2-7.7 18-6 52.5-24.6 75.2-40.4 32.4-22.7 54.3-48 75.7-87.6 4-7.4 7.3-13.6 7.3-13.6.1-.1 13.4-.9 29.6-1.8 66.9-3.8 94.1-6.1 122.8-10.2 39.5-5.6 73.6-14.5 104.2-27.1 10.4-4.2 73.8-36.3 91.6-46.3 28.7-16.2 56.7-36.4 73.9-53.5 33.8-33.4 63-85.5 83-147.5 30.2-93.9 26.1-193.8-11.6-283-28.1-66.5-71.1-118.1-128.3-154-22.1-13.9-44.9-23.7-70.4-30.1-55-13.9-103.9-14.1-150.8-.5-37.1 10.7-75.4 32.3-103.6 58.5l-5.8 5.3v-5.3c0-14.1-15.7-57.6-26.7-74.2-8.1-12.3-26-29.7-40.8-39.7-23.8-16.2-61.7-29.3-95.7-32.9-13.2-1.5-38.4-1.2-49.3.5zM353.1 185c13.4 2.5 26.9 12.1 31.8 22.5 3.1 6.6 4 18.4 1.8 23.8-4.2 9.8-12.2 15.5-20.4 14.2-10-1.5-12.1-4.1-10.5-13.7 1.2-7 .4-13.7-2.1-18.4-1.8-3.5-6.6-7.9-9.7-8.9-2.7-.9-10.5 1.8-16.5 5.6-6.2 3.9-17.2 14.5-19.3 18.4-2.3 4.5-2 13.1.6 19 4.6 10.2 12.8 15.8 29.7 20.5 35.4 9.7 46.7 15.6 54.3 28.3 8.4 14 4.8 35.9-8 48-6.2 5.8-19 12.3-28.3 14.2-10.2 2.1-31.8 1.9-43.2-.4-9.5-2-23.6-8.4-28-12.8-2.7-2.6-3-6.9-.7-10.2 4-5.6 16.4-6.8 27-2.6 3.5 1.4 10.8 3.3 16.2 4.2 9.1 1.5 10.2 1.4 15.6-.1 7-2.1 13.9-8.4 15.5-14.2 1.5-5.4 1.4-13-.3-16.2-1.8-3.4-6.2-7.5-10.2-9.6-1.8-.8-11.2-3.8-21-6.5-9.8-2.8-21.5-6.8-26-9-11-5.2-22.1-15.6-26.6-25-3.1-6.1-3.3-7.2-3.3-17.1 0-9.7.2-11 3.2-17.2 3.3-7.1 11-15.6 19.3-21.4 7.1-5 22.7-12.4 30.4-14.4 7.9-2.1 20.5-2.5 28.7-1zm92.4 1.9c6.9 3.9 9.1 14.4 8.1 38.4l-.7 15.8 2.8-.8c8.8-2.2 18.7.4 19.9 5.4 1 3.9-3.2 6.7-13.8 9.4-5.5 1.3-9.2 2.8-9.7 3.8-.5.9-1.4 11-2 22.6-.7 11.5-1.6 26.2-2.1 32.5-.8 11.1-.2 23.2 1.3 24.6.6.7 2.7-3.7 2.7-5.8 0-.6 1.2-2.7 2.6-4.6 2.6-3.3 2.9-3.4 7.9-3 10.1.8 15.2 7.8 12.5 17.3-1.6 5.7-5.8 10-13 13.4-7.8 3.7-20.1 3.7-28 0-7.1-3.3-11.5-7.1-14.3-12.3-1.8-3.5-2.3-6.3-2.8-18.6-.5-13.6.3-43.6 1.6-59.7l.7-7.2-4.8-.7c-3-.4-5.8-1.7-7.7-3.4-2.8-2.5-3-3-2-5.3 1.2-2.5 2.5-3.1 11.5-5.1 3.6-.8 3.7-1.9 4.3-29.5.4-23.2.5-23.5 2.8-25.9 1.4-1.3 4-2.8 5.8-3.2 4.6-1.1 12.7-.2 16.4 1.9zm85.2 53.4c10.5 5.3 19.7 16 24.1 27.9 5.3 14.2 4.8 26.8-1.3 39.5-15.4 31.5-63.3 32.6-79.9 1.8-1.8-3.4-2.1-5.5-2-15 .3-26.8 12.3-46.4 30.9-50.6 3.7-.8 5.5-1.8 5.8-3 1.2-4.4 14.2-4.7 22.4-.6zm62.1 5.9c3.9 2 6.2 5.8 6.9 11.6l.6 5.2 2.6-1.7c7.1-4.8 13.5-7.3 18.7-7.3 9.5 0 13.7 2.8 18.6 12.4 3.5 7 4.1 13.5 1.5 16.3-3.4 3.8-12.4 5.3-18.8 3.2-4.9-1.7-6.8-3.7-8.3-8.8-1.5-5.1-1.6-5.1-9-1.8l-4.8 2.2.5 5.5c3.8 36.4 3.2 55.8-2 61.3-4.2 4.4-9.8 6.7-17.1 6.7-11.5 0-18.4-6.1-15.2-13.4 1.1-2.4 1.5-12.5 2-42.6.4-24.4 1.1-40.5 1.7-42 1.3-3.1 4.9-6.5 8.3-7.9 2.9-1.3 10.1-.6 13.8 1.1zm133.3-.2c7 2 7.2 2.6 7.6 25.8.2 11.4.8 29.2 1.3 39.7 3.5 65.7 3.3 85-.9 91.9-5.4 8.6-14.4 13.6-25.7 14.4-9.7.6-17-1.7-23.5-7.5-10.6-9.6-8.5-22 4.3-25.4 8.1-2.2 10.3-.6 14.9 10.6l1.2 3 .8-2.5c1.1-3.7 1-16.9-.1-30-.6-6.3-1.4-16.4-1.9-22.3-.5-5.9-1.2-11.1-1.5-11.4-.3-.4-3.5-.1-7 .5-11.3 2.1-21.2 1.1-29.2-3.1-3.9-2-10.3-9.7-11.5-13.9-.5-1.8-.9-12.6-.9-24 0-17.8-.2-21.1-1.7-23.7-2.3-4-1-6.1 4.8-7.9 6.8-2.1 16.1-1 21 2.4 2.2 1.5 4.6 3.9 5.3 5.3 1.3 2.6 3.6 26.7 3.6 38 0 4.1.4 6.3 1.3 6.6.7.3 4.1-.1 7.7-.8l6.4-1.3-.3-13.4c-.1-7.4-.4-13.7-.6-14.1-.2-.3-.1-6.9.4-14.7l.7-14.2 3.3-3.4c4.9-5.1 12.3-6.8 20.2-4.6zm79.8 23.1c9.7 2 12.5 6.9 7.5 12.8l-2.6 3.1-31.1-.2-31.2-.3-.9-2.7c-2.8-8 13.3-13.5 39.6-13.7 7.5-.1 16 .4 18.7 1zM608.8 385.4c5.1 2.7 8.2 7 9.2 12.7.5 3.1.5 16.5-.1 31.9-3.5 101.9-6.2 125.4-14.9 129.7-4.2 2.1-12.2 1.6-16.1-1-6.3-4.2-6.1-1.9-5.4-61.2.9-75.1 1.9-107.1 3.6-109.1.7-.8 2.6-2.1 4.3-2.9 4.2-1.8 16-1.9 19.4-.1zm47.6 2c7.3 5.5 7.5 8 5.6 63.1-2.3 69-5.7 100.6-11.5 107.2-1.9 2.3-3.2 2.7-8.6 3.1-4.9.2-7.2-.1-9.9-1.6-6.8-3.7-6.5 1-5.2-88.1 1.1-74.5 1.3-80.5 2.9-82.4 3.2-3.5 7.3-4.7 15.4-4.5 6.6.3 8 .7 11.3 3.2zm-191.9 0c1.5 1 3.7 3.9 4.8 6.4 2 4.3 2.2 6.3 2.2 25.9v21.2l7-.6c5.7-.4 7.8-.2 10.5 1.2 4.1 2.1 5 3.2 5 6.2 0 3.1-3.7 5.3-13.8 8-4.7 1.2-9 2.7-9.6 3.3-.5.5-1.3 7.4-1.8 15.2-.4 7.9-1.2 21-1.8 29.3-2 29.3-.7 43.4 2.9 31.3.7-2.3 2.5-5.4 4-6.9 2.5-2.4 3.3-2.7 7.2-2.2 8.5 1.1 12.9 5.5 12.9 13 0 11.6-12.3 20.6-27.9 20.5-8.5 0-16.5-3-22.5-8.3-7.9-7-8.1-7.7-8.1-37.9 0-14.6.2-32.8.5-40.5l.5-14-4-.5c-4.9-.7-8.1-2.4-9.5-5.1-1.6-2.8 1-6.5 5-7.3 1.6-.3 4.3-.9 5.9-1.2 1.6-.3 3.3-1.3 3.7-2.2.4-.9.9-12.3 1.1-25.2.2-12.9.6-24.5.9-25.8.2-1.2 1.9-3.2 3.7-4.3 2.7-1.7 4.4-2 10.9-1.6 5 .2 8.5 1 10.3 2.1zm421.2 47.1c8.9 2.6 8.8 2.3 8.9 29.4.1 13 .7 31.2 1.3 40.6.6 9.3 1.6 28.6 2.1 42.7 1.4 37.5-.2 46.3-9.9 53.4-6.3 4.6-12.1 6.4-20.6 6.4-8.5 0-14.3-1.8-20.6-6.4-6-4.4-8.3-9.3-7.4-15.5.4-2.5 1.1-5.3 1.6-6.3 1.4-2.7 7.4-5.8 11.1-5.8 4.8 0 8.1 2.9 10.8 9.6 3.7 9.1 4.4 5.3 3.6-19.7-.7-23.9-2.4-53.8-3.1-55-.3-.4-2.4-.3-4.7.3-2.4.5-9.2.8-15.3.6-12.4-.4-17.6-2.2-25.2-8.4-7.4-6.1-10.2-13.8-8.3-23.1 1-4.6 2.1-6.6 5.9-10.5 6.7-7 15.5-9.9 31.9-10.6 13.7-.5 13.4-.4 14.6-8.1 1-6.5 3.4-9.9 9.1-12.6 5.9-2.9 7.5-3 14.2-1zM698 441.9c3.6 1.9 5.8 6.1 5.9 11.2.2 8.9-16.1 12.9-23.7 5.9-4-3.8-2.3-13.7 3-17.4 3-2.2 10.6-2 14.8.3zm-154.9 2.5c10.8 2.5 19.1 9.2 22.5 18.2 1.5 3.8 1.5 4.7 0 9.6-2.7 9.3-13.3 19.1-26.5 24.4-7.1 2.9-16.9 4.1-19.9 2.5-2.1-1.1-2.1-1.1-.5 3.4.8 2.5 3.5 6.7 6 9.5 6.9 7.7 9.8 7.2 22-4.2 5.9-5.5 8.7-6.8 14.4-6.8 5.7 0 10.7 2.4 12 5.7 4.6 12.2-19.1 29.3-40.6 29.3-21.9 0-36.7-11-42.9-31.9-1.9-6.3-2.1-18.7-.5-26.3 5-23.7 29.9-39.1 54-33.4zm196 1.1c5.4.8 8 4.2 8.6 11.2l.5 6 6.7-3.4c14.7-7.4 19.8-8.5 28.7-5.8 15.6 4.6 22.8 23.5 24.1 63l.6 19-2.8 2.7c-6 6-19.2 6.2-25 .4-2.1-2.1-2.2-3.2-2.8-27.1-.9-33.6-2.8-46.5-6.9-46.5-1.6 0-19.8 8.8-21.6 10.5-.1.1.4 7.1 1.3 15.5 2.4 24.3 1.7 39.8-2.1 47.2-.8 1.6-3.2 4-5.4 5.4-5.2 3.4-14.3 3.7-21.3.6-6.2-2.7-7.7-5.9-5.3-10.9 1.6-3.3 1.8-8.1 2.3-40.3.5-43.9 1-46 9.6-48 1.7-.4 4.1-.6 5.2-.4 1.1.1 3.6.5 5.6.9zm-39.2 27.6c4.7 4.4 7 16.3 7.8 40.4.9 28.7-1.6 39.1-11.1 44.9-9 5.6-21.6 4.4-25.1-2.3-1.4-2.8-1.4-3.4.1-6.8 2.9-6.9 3.4-9.7 5.4-30.8 3.4-36.2 4.4-41 9.1-45.4 3.1-2.9 10.6-2.9 13.8 0zM624 586.2c1.8 1.3 4.3 3.6 5.4 5.1 2 2.7 2.1 4 1.9 24-.5 57.5-4.4 112-8.9 125.9-2.1 6.3-4.4 7.8-12.2 7.8-5.9 0-6.6-.2-9.8-3.4l-3.4-3.4v-21.3c0-32.5 1.9-129.1 2.6-131.2 1.7-5.4 18.2-7.7 24.4-3.5zm132.3-.8c1.8.7 4.6 2.9 6.3 4.8 3 3.4 3.1 4 3.8 15.4.6 11.4-.9 75.2-1.9 78.5-.5 1.3.3 1.4 6.6.6 9.2-1.3 23.1.4 29.1 3.4 11.2 5.7 14.7 10.9 15.1 22.2.2 6.6-.1 7.6-3.1 12.4-6.3 9.8-21.2 15.3-41.9 15.3h-11.2l-2 4.5c-4.4 9.9-16.9 11.5-22.6 2.8-2.7-4-3-16.6-1.5-62.8.7-21.5 1.4-50.3 1.5-64 .3-24.8.8-28.9 3.8-31.4 3.8-3 12.7-3.9 18-1.7zm-215.8 3.1c3.8.8 9.4 2.7 12.3 4.1 6.1 3 15.3 11.8 17.2 16.5 1.2 2.8 1.1 3.3-1.2 5.5-1.3 1.4-4 2.7-5.9 3-2.9.5-4.4-.1-10.3-4.1-10.6-7.3-17.3-10.5-21.8-10.5-9.6 0-19.9 9.3-27.3 24.5-2.4 4.9-4.9 11.7-5.4 14.9-2.4 13.4-.5 42.8 3.4 53.3 5.3 14.1 14.7 26.4 22.7 29.7 3.2 1.4 4.2 1.4 7.6.2 7-2.5 12.1-6.7 19.8-16.3 10.1-12.6 13.6-14.8 22.9-14.8 8.2 0 11.9 1.5 14.2 5.8 3.5 6.9-1.6 17.8-14.1 30.3-13.1 13-25.4 17.8-45.1 17.6-29-.2-45.4-11-58.5-38.5-6.4-13.4-7.4-18.7-7.4-39.2-.1-11.4.4-20.2 1.3-24 7.5-34 34.2-59.1 63.1-59.4 3 0 8.6.6 12.5 1.4zm-229.5 55c15.2 3.5 27.2 10.7 40 24.1 8.8 9.2 19.8 25.2 25.7 37.4 4.1 8.5 10.3 25 10.3 27.5 0 3.4-25.5 15.2-37.7 17.5-17.1 3.1-45.9-2.4-65.2-12.5-20.4-10.8-35.3-28.2-40.1-47.1-6.8-26.5 4-43.5 30.8-48.4 7-1.3 27.6-.4 36.2 1.5zm410.9 3.6c3.2 1.9 3.3 2.2 2.8 6.7-.4 2.6-1.1 6.7-1.6 9.2-.7 2.9-.8 13.4-.4 29 .3 13.5.2 28.1-.2 32.4-.6 6.9-1.1 8.3-3.5 10.8-2.6 2.5-3.5 2.8-9.8 2.8-9.2 0-11.8-1.9-12.7-9.4l-.7-5.4-10.7 5c-9.5 4.5-11.4 5.1-17.7 5.2-6.3 0-7.7-.3-12-3-5.7-3.5-9.7-9.5-11.9-17.9-2.8-10.9-4.7-30.3-4.3-43.1.4-13.8 1.5-16.6 7.6-19.1 4.9-2.1 14.3-1.3 18 1.4l2.7 2 .1 30.9c0 18.3.4 32.1 1.1 33.9.8 2.6 1.5 3 4.4 2.9 1.9-.1 7.6-2.1 12.6-4.5 10.6-5 10.2-4.2 8.3-18.4-.5-3.9-1-14.8-1-24.3-.2-20 .7-23.1 7.5-26.9 5.5-3.1 16.5-3.2 21.4-.2z"/><path d="M509.5 260.2c-7.1 6.1-11.5 18.9-11.5 33 0 7.5.3 8.9 2.8 12.9 3.3 5.1 9.5 8.5 13.7 7.5 3.5-.9 10.1-7 13.3-12.5 2.4-4.2 2.7-5.5 2.7-14.6 0-8.8-.3-10.7-2.7-15.8-6.4-13.7-11.4-16.6-18.3-10.5zM846 471.2c-5.5 2.9-8.1 6.4-8.7 11.9-.5 5.5 2.1 10.6 6.8 13.4 3.9 2.3 15.1 2.7 17.1.7 1.5-1.5 1.3-23.4-.2-26.2-1.5-2.8-9.2-2.7-15 .2zM529.2 460.7c-7.1 3.5-12.2 13.6-12.9 25.7-.3 5.6-.1 7.6.6 6.6.5-.9 4.4-3.4 8.7-5.5 8.6-4.4 16.9-11.8 18-16 2-7.9-7-14.6-14.4-10.8zM764.4 695.8c-.6.4-1.4 4.5-1.8 9.2-.4 4.7-.9 10.9-1.3 13.9l-.6 5.4 8.9-.5c10.7-.5 14.5-2.3 17.5-8.5 3.5-7.2.4-15-7.5-18.7-3.5-1.6-13.2-2.2-15.2-.8zM48.2 195.2c-1.7 2.2-10.2 25.7-12.9 35.8-3.5 13.1-4.2 33.1-1.8 50.2 4.5 32.1 16.6 67.7 31.1 91.7 10 16.5 27 35 41.6 45.4 13.2 9.5 39 20.7 43.9 19.2 1.9-.6 3.4-3.9 2.4-5.4-.3-.6-4.9-3.1-10.2-5.6-16-7.5-28.4-16.4-42.4-30.4C86 382.2 80.1 374.7 70.8 359c-11.8-19.8-20.6-43.8-24.9-68.5-1.9-10.7-2.3-16.5-2.3-32.5.1-21.8 1.9-34.9 7.3-52 2.2-6.9 2.7-9.8 1.9-10.7-1.3-1.6-3.3-1.7-4.6-.1zM947 223.9c-.8 1.6-.3 2.7 2.4 6 1.9 2.2 4.3 5.5 5.4 7.3 2.9 4.7 18.1 43.4 24.7 62.8 30 88.1 31 171.3 3.4 278.3-2.3 8.6-3.9 16.4-3.5 17.2.3.8 1.7 2.1 3.2 2.7 2.3 1.1 2.8 1 4.5-1.1 1-1.2 4.1-9.1 6.8-17.5 9-27.5 16-59.5 19.8-90.6 2.2-18.2 2.5-77.2.5-94.5-5.3-45.2-17.1-86.3-38.4-133.5-9.2-20.4-13.2-27.4-19.1-33.8-5.3-5.5-8-6.4-9.7-3.3z"/><path d="M.3 277.6c-1 2.7.7 22 3.2 36.8 9 52.7 30.8 95 60.5 117.3 11.1 8.4 29.3 15.4 40.5 15.7 4.7.1 5-.1 5.3-2.5.3-2.3-.6-3-10-7.8-29.8-15.2-49.5-33.6-65-60.9C20 350.3 9 315 7.3 288.2c-.3-5.3-1-10.3-1.6-11-1.3-1.7-4.6-1.5-5.4.4zM1011.5 304.9c-.3 1.2 1.4 5.6 4.9 12.3 9.1 17.1 15.3 39.4 19.1 68.1 2.1 16.3 1.9 31-.7 60.1-2.1 24.3-2.1 24.9-.3 26.2 1 .8 2.2 1.4 2.7 1.4 1.7 0 4-5.2 6.3-14.5 11-43.1 5.5-97.4-13.6-134.6-6.9-13.5-12.4-20.9-15.4-20.9-1.4 0-2.6.7-3 1.9zM96.7 675.9c-11.2 22.5-12.2 26.6-12 49.6.1 9.9.7 21.1 1.5 25 1.2 6.4 1.5 7 3.8 7h2.5L92 747c-.3-5.8-.5-17.5-.5-26 .1-18.9 1-22.6 10.6-44.3 3.8-8.7 6.7-16.2 6.4-16.7-1.7-2.8-4 .4-11.8 15.9zM118.2 711.9c-3.5 2.2-5.9 21.6-4.2 33.9 4.4 32.5 25.5 67.3 53.2 88.2 8.2 6.2 22.9 14 26.4 14 2.2 0 4.4-1.8 4.4-3.6 0-.7-7.2-7.4-16-14.9-26.1-22.3-37.9-36.6-48.1-57.9-8.7-18.2-12.1-38.8-8.8-52.2 1-3.9.9-4.7-.6-6.4-1.9-2.1-4.1-2.5-6.3-1.1zM409.5 970.1c-11.5 13.8-24.9 24.6-40.5 32.4-4.1 2.1-15.8 7-26 10.9-17 6.6-18.5 7.4-18.5 9.6 0 2.1.5 2.6 3.2 2.8 9.8 1 45.4-13.3 60.8-24.3 7.4-5.2 16.9-15.2 25.3-26.5 6.4-8.6 7.2-11.3 3.7-11.8-1.5-.2-3.7 1.7-8 6.9z"/></svg>