<?xml version="1.0" standalone="no"?>
<!DOCTYPE svg PUBLIC "-//W3C//DTD SVG 20010904//EN"
 "http://www.w3.org/TR/2001/REC-SVG-20010904/DTD/svg10.dtd">
<svg version="1.0" xmlns="http://www.w3.org/2000/svg"
 width="16.000000pt" height="16.000000pt" viewBox="0 0 16.000000 16.000000"
 preserveAspectRatio="xMidYMid meet">
<metadata>
Created by potrace 1.11, written by Peter Selinger 2001-2013
</metadata>
<g transform="translate(0.000000,16.000000) scale(0.003125,-0.003125)"
fill="#000000" stroke="none">
<path d="M2245 5100 c-50 -11 -89 -40 -159 -120 -33 -37 -78 -87 -211 -234 -5
-6 -46 -52 -90 -101 -44 -50 -96 -108 -116 -130 -39 -42 -194 -216 -319 -355
-41 -46 -84 -94 -96 -107 -12 -12 -52 -57 -90 -100 -38 -42 -76 -84 -84 -93
-8 -9 -51 -56 -95 -106 -98 -109 -85 -94 -175 -194 -41 -46 -83 -92 -93 -104
-17 -19 -137 -153 -162 -180 -227 -246 -275 -322 -324 -508 -29 -109 -33 -144
-33 -311 -1 -218 34 -374 109 -495 l21 -34 -43 -81 c-61 -114 -87 -224 -87
-362 1 -270 104 -501 286 -640 68 -51 145 -81 511 -195 50 -15 212 -67 360
-115 149 -47 376 -120 505 -162 330 -105 721 -230 950 -304 232 -75 297 -82
365 -37 23 14 54 43 70 64 16 22 48 62 71 89 37 44 637 774 902 1099 53 65
102 124 107 130 6 6 91 110 190 231 98 121 181 222 185 225 25 21 183 226 200
258 30 57 27 115 -8 203 -47 119 -65 218 -66 364 -1 152 13 240 61 385 38 116
43 176 19 232 -20 48 -20 115 0 196 42 167 -23 277 -172 289 -52 5 -66 2 -100
-20 -21 -13 -49 -35 -61 -48 -48 -54 -89 -249 -80 -382 l6 -82 -100 -125 c-55
-69 -108 -134 -117 -145 -10 -11 -82 -101 -162 -200 -80 -99 -148 -182 -151
-185 -3 -3 -41 -50 -85 -105 -43 -55 -81 -102 -85 -105 -3 -3 -59 -72 -126
-155 -143 -179 -342 -424 -387 -480 -19 -22 -64 -78 -102 -125 -38 -47 -95
-118 -127 -157 -32 -40 -64 -70 -70 -68 -13 4 -943 289 -1437 440 -173 53
-371 113 -440 135 -69 21 -188 58 -265 81 -77 23 -150 49 -163 57 -90 58 -120
364 -47 474 31 46 91 77 156 79 39 1 388 -100 1209 -351 52 -16 223 -68 380
-115 157 -47 328 -99 380 -115 132 -41 175 -49 213 -41 65 15 81 29 211 184
115 139 220 262 225 267 3 3 40 46 81 95 178 213 295 350 300 355 6 5 772 910
888 1049 35 42 76 90 90 106 129 146 152 184 154 249 1 80 -50 149 -132 175
-19 6 -134 33 -255 60 -121 27 -659 149 -1195 271 -536 122 -995 225 -1020
229 -25 4 -59 4 -75 1z m420 -775 c209 -51 496 -121 638 -155 164 -40 266 -69
282 -82 46 -36 37 -53 -101 -215 -64 -74 -149 -99 -243 -73 -34 10 -503 124
-986 241 -311 75 -325 81 -325 136 0 23 142 191 182 217 37 23 90 34 138 28
19 -2 206 -46 415 -97z m1773 -1821 c3 -41 35 -185 51 -226 10 -27 1 -41 -167
-243 -9 -11 -37 -45 -62 -75 -25 -30 -52 -64 -62 -75 -69 -84 -200 -243 -289
-351 -58 -71 -188 -230 -290 -354 -312 -380 -361 -440 -488 -595 -68 -82 -127
-151 -131 -153 -7 -3 -840 261 -1575 498 -105 34 -457 146 -631 201 -99 32
-160 110 -187 241 -21 99 -13 199 23 276 16 34 32 62 35 62 3 0 48 -13 98 -29
51 -16 308 -95 572 -176 264 -81 543 -166 620 -190 529 -165 1065 -325 1095
-327 48 -3 99 10 133 36 16 11 95 102 175 201 80 99 149 182 152 185 3 3 57
70 121 150 64 80 218 271 343 425 125 154 277 342 338 418 61 75 114 137 118
137 3 0 7 -16 8 -36z"/>
</g>
</svg>
